<svg xmlns="http://www.w3.org/2000/svg" version="1.1" xmlns:xlink="http://www.w3.org/1999/xlink" width="441.953531792248" height="200" viewBox="-12.288000106811523 9.680000305175781 101.60800170898438 40.50666809082031"><path d="M-7.48 38L-7.48 38Q-8.40 34.20-9.32 27.36L-9.32 27.36Q-9.32 27.32-9.66 23.08Q-10 18.84-10.28 17.60L-10.28 17.60Q-10.88 20.56-11.10 24.14Q-11.32 27.72-10.80 31.44Q-10.28 35.16-8.92 36.96L-8.92 36.96Q-8.36 37.64-7.48 38ZM8.56 34.40L11.08 26.36L5.76 30.72Q4.40 31.88 1.92 34.24L1.92 34.24L-0.88 36.92Q-1.32 37.32-2.08 38.08L-2.08 38.08L-3.36 39.36Q-3.84 39.80-4.42 40.20Q-5 40.60-5.36 40.64L-5.36 40.64Q-4.08 44.68-2.38 47Q-0.68 49.32 1.56 49.04L1.56 49.04Q1.92 49 2.60 48.64L2.60 48.64Q3.16 47.84 3.68 46.96L3.68 46.96L4.56 45.36Q4.92 44.64 5.36 43.52L5.36 43.52L6.08 41.84Q6.28 41.28 6.74 39.92Q7.20 38.56 7.34 38.18Q7.48 37.80 8 36.24L8 36.24L8.56 34.40ZM9.32 14.80L9.32 14.80Q2.36 22.44-2 31.28L-2 31.28L-2.64 32.64Q-3.04 33.48-3.72 35.06Q-4.40 36.64-4.70 37.86Q-5 39.08-4.72 39.36L-4.72 39.36Q-4.56 39.48-4.38 39.52Q-4.20 39.56-3.96 39.46Q-3.72 39.36-3.48 39.22Q-3.24 39.08-2.96 38.80L-2.96 38.80L-2.32 38.32Q-2.04 38.04-1.68 37.68L-1.68 37.68L-1.04 37.04L-0.40 36.40Q-0.04 36.04 0.24 35.80L0.24 35.80Q0.60 35.48 3.06 33.12Q5.52 30.76 6.88 29.60L6.88 29.60L11.20 26.04L13.52 18.72Q15.76 11.52 15.32 10.96L15.32 10.96Q14.52 10 9.32 14.80ZM12.12 25.60L12.12 25.60L9.68 33.28Q9.56 33.60 9.12 35.02Q8.68 36.44 8.56 36.88L8.56 36.88L8 38.52Q7.56 39.76 7.36 40.32L7.36 40.32L6.72 41.92Q6.28 43 5.92 43.68L5.92 43.68L5.12 45.20Q4.64 46.12 4.16 46.88Q3.68 47.64 3.12 48.40L3.12 48.40L2 49.52L1.52 49.76Q1.20 49.92 0.94 50.02Q0.68 50.12 0.44 50.16L0.44 50.16Q-0.88 50.32-2.08 49.52Q-3.28 48.72-4.20 47.12Q-5.12 45.52-5.82 43.66Q-6.52 41.80-7.12 39.48L-7.12 39.48Q-7.84 39.36-8.24 39.26Q-8.64 39.16-9.16 38.86Q-9.68 38.56-10.04 38.08L-10.04 38.08Q-11.52 36.16-12 32.04Q-12.48 27.92-12.16 24.06Q-11.84 20.20-11.12 17.52L-11.12 17.52L-11 17.40L-10.60 17L-10 16.40Q-9.92 16.36-9.78 16.18Q-9.64 16-9.54 15.92Q-9.44 15.84-9.36 15.92L-9.36 15.92Q-9.12 16.20-8.86 18.44Q-8.60 20.68-8.42 23.30Q-8.24 25.92-8.20 26.24L-8.20 26.24Q-7.12 34.04-6 38.36L-6 38.36L-5.64 38.40Q-4.88 36-3.12 32.40L-3.12 32.40Q1.36 23.32 8.68 15.40L8.68 15.40L9.80 14.28Q9.84 14.24 10.08 14L10.08 14L10.68 13.44L11.48 12.72L12.40 11.92L13.44 11.12Q13.96 10.72 14.40 10.44Q14.84 10.16 15.28 9.92Q15.72 9.68 15.98 9.68Q16.24 9.68 16.44 9.84L16.44 9.84Q16.92 10.36 14.64 17.60L14.64 17.60L12.24 25.24Q13.84 24 15.42 22.94Q17 21.88 18.04 21.24L18.04 21.24L21.84 19L26.52 16.24L25.40 17.36L20.96 20L17.44 22.08Q16.36 22.68 14.92 23.62Q13.48 24.56 12.12 25.60ZM27.60 34.96L27.60 34.96Q25.20 37.80 26.04 38.84L26.04 38.84Q26.60 37.96 29.40 34.40L29.40 34.40Q30.28 33.32 30.04 33.32L30.04 33.32Q29.72 33.36 27.60 34.96ZM25.84 40.52L25.84 40.52L24.84 41.52Q24.88 41 25.24 40.28L25.24 40.28Q23.56 39.24 27.20 35.28L27.20 35.28L28.32 34.16Q31.24 31.92 31.24 32.24L31.24 32.24Q31.24 32.40 29.16 34.96L29.16 34.96Q27.08 37.64 26.36 39.12L26.36 39.12Q27.04 39.52 28.44 39.56Q29.84 39.60 32.06 39.44Q34.28 39.28 35.36 39.28L35.36 39.28L34.24 40.40Q33.16 40.40 31.14 40.54Q29.12 40.68 28.16 40.70Q27.20 40.72 25.84 40.52ZM40.28 37.40L40.28 37.40Q42.08 35.60 42.24 35.72L42.24 35.72Q42.32 35.92 42.28 36.46Q42.24 37 42.16 37.68L42.16 37.68L42.08 38.36Q42.12 38.92 42.22 39.20Q42.32 39.48 42.54 39.60Q42.76 39.72 42.98 39.74Q43.20 39.76 43.72 39.76Q44.24 39.76 44.68 39.84L44.68 39.84L43.56 40.96Q43.12 40.92 42.60 40.90Q42.08 40.88 41.86 40.88Q41.64 40.88 41.40 40.76Q41.16 40.64 41.08 40.34Q41 40.04 40.96 39.48L40.96 39.48L41.04 38.80Q41.12 38.12 41.16 37.58Q41.20 37.04 41.12 36.84L41.12 36.84Q41 36.76 40.28 37.40ZM35.64 35.92L36.44 34.04L37.56 32.92Q37.48 33.12 37.30 33.50Q37.12 33.88 37 34.20Q36.88 34.52 36.76 34.80L36.76 34.80Q36.60 35.28 36.20 36.68L36.20 36.68Q35.56 38.96 35.64 39.56L35.64 39.56Q35.92 41.68 39.28 38.40L39.28 38.40Q36.24 41.52 35.24 41.56L35.24 41.56Q34.64 41.60 34.52 40.68L34.52 40.68Q34.44 40.08 35.08 37.80L35.08 37.80Q35.44 36.40 35.64 35.92L35.64 35.92ZM45.12 41.48L45.12 41.48Q45.92 39.08 46.68 36.08L46.68 36.08Q45.24 37.68 44.44 39.48L44.44 39.48Q43.72 41.12 43.48 42.96L43.48 42.96Q43.36 44.44 44.08 44.28L44.08 44.28Q44.52 43.32 44.96 42.04L44.96 42.04Q44.88 41.92 45.12 41.48ZM49.72 36.80L49.72 36.80L48.88 37.52Q48.24 38.08 47.84 38.48Q47.44 38.88 47.08 39.28L47.08 39.28Q47.32 39.08 47.92 38.52L47.92 38.52L48.96 37.60Q49.36 37.20 49.72 36.80ZM49.72 36.80L49.72 36.80Q50.44 36 50.80 35.20L50.80 35.20Q51 34.84 50.96 34.32Q50.92 33.80 50.60 33.60L50.60 33.60Q50.08 33.32 47.76 35.08L47.76 35.08Q47.12 37.72 46.40 39.92L46.40 39.92Q46.72 39.64 47.08 39.28L47.08 39.28Q46.68 39.72 46.40 40.16L46.40 40.16L46.28 40.36L46.08 40.92Q46.12 40.96 46.16 40.96L46.16 40.96Q46.92 41.12 47.70 41.14Q48.48 41.16 49.34 41Q50.20 40.84 50.88 40.70Q51.56 40.56 52.52 40.24L52.52 40.24L54.04 39.68Q54.60 39.48 55.62 39.08Q56.64 38.68 57 38.52L57 38.52L55.88 39.64L54.72 40.12Q53.92 40.44 53.46 40.60Q53 40.76 52.18 41.08Q51.36 41.40 50.88 41.52Q50.40 41.64 49.56 41.88Q48.72 42.12 48.24 42.14Q47.76 42.16 46.92 42.24Q46.08 42.32 45.60 42.20L45.60 42.20Q45.28 43.12 44.92 43.80L44.92 43.80L43.80 44.92Q42.24 46.20 42.32 44.44L42.32 44.44Q42.44 42.76 43.32 40.60L43.32 40.60Q43.60 39.96 43.86 39.48Q44.12 39 44.52 38.48L44.52 38.48L45.08 37.76Q45.24 37.52 45.86 36.84Q46.48 36.16 46.68 35.96L46.68 35.96Q47.92 30.92 48.50 25.98Q49.08 21.04 48.68 17.96L48.68 17.96Q46.04 27.24 46.04 34.28L46.04 34.28L44.92 35.40Q44.92 27.56 48.36 16.36L48.36 16.36L49.48 15.24Q50.08 17.12 49.96 20.46Q49.84 23.80 49.28 27.46Q48.72 31.12 47.84 34.80L47.84 34.80L47.96 34.68L48.68 34.16L49.60 33.44Q49.92 33.20 50.40 32.88Q50.88 32.56 51.22 32.46Q51.56 32.36 51.72 32.48L51.72 32.48Q52.04 32.68 52.08 33.20Q52.12 33.72 51.92 34.08L51.92 34.08Q51.36 35.28 49.72 36.80ZM56.04 32.12L54.92 33.24Q54.72 33.20 54.54 33.16Q54.36 33.12 54.26 33.10Q54.16 33.08 54.12 33.06Q54.08 33.04 54.00 33.04L54.00 33.04L53.92 33.04Q53.88 33.04 53.72 33.08Q53.56 33.12 53.44 33.16L53.44 33.16L54.56 32.04Q56.40 30.84 58.56 29.88L58.56 29.88Q59.12 25.16 59.16 22.32L59.16 22.32Q58.72 18.44 58.72 15.80L58.72 15.80L59.84 14.68Q60.36 17.68 60.28 21.16L60.28 21.16L60.40 22.12L60.24 22.28Q60.16 24.84 59.60 29.40L59.60 29.40Q61.12 28.76 63.32 28L63.32 28L62.20 29.12Q60.64 29.68 59.52 30.12L59.52 30.12Q59.04 34.08 58.88 36.12L58.88 36.12Q58.88 36.40 58.80 37.18Q58.72 37.96 58.70 38.36Q58.68 38.76 58.66 39.46Q58.64 40.16 58.76 40.60Q58.88 41.04 59.06 41.58Q59.24 42.12 59.60 42.52Q59.96 42.92 60.44 43.24L60.44 43.24L59.32 44.36Q58.80 44.04 58.46 43.64Q58.12 43.24 57.92 42.70Q57.72 42.16 57.62 41.72Q57.52 41.28 57.52 40.58Q57.52 39.88 57.54 39.48Q57.56 39.08 57.64 38.30Q57.72 37.52 57.76 37.24L57.76 37.24Q57.92 35.24 58.48 30.52L58.48 30.52Q56.84 31.24 55.44 31.96L55.44 31.96Q55.72 32.04 56.04 32.12L56.04 32.12ZM64.40 34.96L64.40 34.96Q62.00 37.80 62.84 38.84L62.84 38.84Q63.40 37.96 66.20 34.40L66.20 34.40Q67.08 33.32 66.84 33.32L66.84 33.32Q66.52 33.36 64.40 34.96ZM62.64 40.52L62.64 40.52L61.64 41.52Q61.68 41 62.04 40.28L62.04 40.28Q60.36 39.24 64 35.28L64 35.28L65.12 34.16Q68.04 31.92 68.04 32.24L68.04 32.24Q68.04 32.40 65.96 34.96L65.96 34.96Q63.88 37.64 63.16 39.12L63.16 39.12Q63.84 39.52 65.24 39.56Q66.64 39.60 68.86 39.44Q71.08 39.28 72.16 39.28L72.16 39.28L71.04 40.40Q69.96 40.40 67.94 40.54Q65.92 40.68 64.96 40.70Q64 40.72 62.64 40.52ZM71.68 39.92L71.68 39.92Q71.64 40.08 71.42 40.46Q71.20 40.84 71.16 41Q71.12 41.16 71.16 41.52L71.16 41.52Q71.24 41.68 71.86 41.40Q72.48 41.12 73.54 40.44Q74.60 39.76 75.64 38.88L75.64 38.88Q75.64 37.92 75.40 37.04L75.40 37.04Q73.60 38.16 71.68 39.92ZM77.52 32.04L76.40 33.16Q76.48 32.84 76.88 32.12L76.88 32.12Q77.28 31.32 77.08 31.32L77.08 31.32Q77 31.32 76.80 31.44L76.80 31.44Q76.36 32.08 76.16 32.58Q75.96 33.08 75.96 33.54Q75.96 34 76 34.26Q76.04 34.52 76.24 35.06Q76.44 35.60 76.52 35.88L76.52 35.88Q78.28 34.80 80.20 34.08L80.20 34.08L79.08 35.20Q77.80 35.68 76.60 36.32L76.60 36.32Q76.76 37.04 76.76 37.84L76.76 37.84L75.64 38.96Q74.48 40.12 73.14 41.08Q71.80 42.04 70.96 42.44Q70.12 42.84 70.04 42.64L70.04 42.64Q69.92 42.40 70.02 42.12Q70.12 41.84 70.32 41.50Q70.52 41.16 70.60 40.96L70.60 40.96L71.72 39.84Q73.64 37.96 75.28 36.72L75.28 36.72Q75.24 36.56 75.08 36.12Q74.92 35.68 74.90 35.52Q74.88 35.36 74.82 35Q74.76 34.64 74.84 34.38Q74.92 34.12 75.06 33.72Q75.20 33.32 75.48 32.86Q75.76 32.40 76.20 31.80L76.20 31.80L77.32 30.68Q78.28 30.04 78.32 30.28L78.32 30.28Q78.32 30.32 77.72 31.52L77.72 31.52Q77.60 31.80 77.52 32.04L77.52 32.04ZM85.88 18.12L86.84 13.72L87.96 12.60L87.04 16.88L86.04 21.44Q85.72 22.88 85.06 25.62Q84.40 28.36 83.88 30.14Q83.36 31.92 82.62 34.22Q81.88 36.52 81.08 38.52L81.08 38.52L83.96 34.88L85.08 33.76Q84.76 34.56 84.56 35.16Q84.36 35.76 84.38 36.26Q84.40 36.76 84.44 37.10Q84.48 37.44 84.82 37.74Q85.16 38.04 85.40 38.22Q85.64 38.40 86.28 38.60Q86.92 38.80 87.32 38.90Q87.72 39 88.60 39.20L88.60 39.20Q89.08 39.32 89.32 39.40L89.32 39.40L88.20 40.52Q87.96 40.48 87.44 40.36L87.44 40.36L86.24 40.08Q85.88 39.96 85.26 39.76Q84.64 39.56 84.40 39.40L84.40 39.40L83.80 38.96Q83.44 38.72 83.38 38.42Q83.32 38.12 83.26 37.68Q83.20 37.24 83.32 36.72Q83.44 36.20 83.72 35.52L83.72 35.52L80.84 39.16L79.72 40.28Q80.56 38.24 81.34 35.88Q82.12 33.52 82.64 31.70Q83.16 29.88 83.84 27.04L83.84 27.04L84.84 22.80L85.88 18.12Z" fill="black"></path></svg>